HIERARCHY
ROOT Hips
{
  OFFSET 0.0 0.0 0.0
  CHANNELS 6 Xposition Yposition Zposition Zrotation Yrotation Xrotation
  JOINT LHipJoint
  {
    OFFSET 0.0 0.0 0.0
    CHANNELS 3 Zrotation Yrotation Xrotation
    JOINT LeftUpLeg
    {
      OFFSET 1.363059998 -1.794630051 0.839290023
      CHANNELS 3 Zrotation Yrotation Xrotation
      JOINT LeftLeg
      {
        OFFSET 2.448110104 -6.726130009 0.0
        CHANNELS 3 Zrotation Yrotation Xrotation
        JOINT LeftFoot
        {
          OFFSET 2.562200069 -7.039589882 0.0
          CHANNELS 3 Zrotation Yrotation Xrotation
          JOINT LeftToeBase
          {
            OFFSET 0.157639995 -0.433109999 2.322550058
            CHANNELS 3 Zrotation Yrotation Xrotation
            End Site
            {
              OFFSET 0.0 -0.0 1.189659953
            }
          }
        }
      }
    }
  }
  JOINT RHipJoint
  {
    OFFSET 0.0 0.0 0.0
    CHANNELS 3 Zrotation Yrotation Xrotation
    JOINT RightUpLeg
    {
      OFFSET -1.305520058 -1.794630051 0.839290023
      CHANNELS 3 Zrotation Yrotation Xrotation
      JOINT RightLeg
      {
        OFFSET -2.54253006 -6.985549927 0.0
        CHANNELS 3 Zrotation Yrotation Xrotation
        JOINT RightFoot
        {
          OFFSET -2.568259954 -7.056230068 0.0
          CHANNELS 3 Zrotation Yrotation Xrotation
          JOINT RightToeBase
          {
            OFFSET -0.164729998 -0.452589989 2.363149881
            CHANNELS 3 Zrotation Yrotation Xrotation
            End Site
            {
              OFFSET -0.0 -0.0 1.21081996
            }
          }
        }
      }
    }
  }
  JOINT LowerBack
  {
    OFFSET 0.0 0.0 0.0
    CHANNELS 3 Zrotation Yrotation Xrotation
    JOINT Spine
    {
      OFFSET 0.028270001 2.035589933 -0.193379998
      CHANNELS 3 Zrotation Yrotation Xrotation
      JOINT Spine1
      {
        OFFSET 0.05672 2.04885006 -0.042750001
        CHANNELS 3 Zrotation Yrotation Xrotation
        JOINT Neck
        {
          OFFSET 0.0 0.0 0.0
          CHANNELS 3 Zrotation Yrotation Xrotation
          JOINT Neck1
          {
            OFFSET -0.054170001 1.74624002 0.172020003
            CHANNELS 3 Zrotation Yrotation Xrotation
            JOINT Head
            {
              OFFSET 0.10407 1.761360049 -0.123970002
              CHANNELS 3 Zrotation Yrotation Xrotation
              End Site
              {
                OFFSET 0.0372 1.770439982 -0.062410001
              }
            }
          }
        }
        JOINT LeftShoulder
        {
          OFFSET 0.0 0.0 0.0
          CHANNELS 3 Zrotation Yrotation Xrotation
          JOINT LeftArm
          {
            OFFSET 3.362410069 1.200889945 -0.311210006
            CHANNELS 3 Zrotation Yrotation Xrotation
            JOINT LeftForeArm
            {
              OFFSET 4.982999802 -0.0 -0.0
              CHANNELS 3 Zrotation Yrotation Xrotation
              JOINT LeftHand
              {
                OFFSET 3.483560085 -0.0 -0.0
                CHANNELS 3 Zrotation Yrotation Xrotation
                JOINT LeftFingerBase
                {
                  OFFSET 0.0 0.0 0.0
                  CHANNELS 3 Zrotation Yrotation Xrotation
                  JOINT LeftHandIndex1
                  {
                    OFFSET 0.715260029 -0.0 -0.0
                    CHANNELS 3 Zrotation Yrotation Xrotation
                    End Site
                    {
                      OFFSET 0.576659977 -0.0 -0.0
                    }
                  }
                }
                JOINT LThumb
                {
                  OFFSET 0.0 0.0 0.0
                  CHANNELS 3 Zrotation Yrotation Xrotation
                  End Site
                  {
                    OFFSET 0.585470021 -0.0 0.585470021
                  }
                }
              }
            }
          }
        }
        JOINT RightShoulder
        {
          OFFSET 0.0 0.0 0.0
          CHANNELS 3 Zrotation Yrotation Xrotation
          JOINT RightArm
          {
            OFFSET -3.136600018 1.374050021 -0.404650003
            CHANNELS 3 Zrotation Yrotation Xrotation
            JOINT RightForeArm
            {
              OFFSET -5.241899967 -0.0 -0.0
              CHANNELS 3 Zrotation Yrotation Xrotation
              JOINT RightHand
              {
                OFFSET -3.444169998 -0.0 -0.0
                CHANNELS 3 Zrotation Yrotation Xrotation
                JOINT RightFingerBase
                {
                  OFFSET 0.0 0.0 0.0
                  CHANNELS 3 Zrotation Yrotation Xrotation
                  JOINT RightHandIndex1
                  {
                    OFFSET -0.622529984 -0.0 -0.0
                    CHANNELS 3 Zrotation Yrotation Xrotation
                    End Site
                    {
                      OFFSET -0.501900017 -0.0 -0.0
                    }
                  }
                }
                JOINT RThumb
                {
                  OFFSET 0.0 0.0 0.0
                  CHANNELS 3 Zrotation Yrotation Xrotation
                  End Site
                  {
                    OFFSET -0.509559989 -0.0 0.509559989
                  }
                }
              }
            }
          }
        }
      }
    }
  }
}
MOTION
Frames: 5
Frame Time: 0.0083333
5.924267769 17.426700592 33.35049057 0.515899956 32.872001648 4.392995834 0.0 -0.0 0.0 -18.950395584 9.750498772 11.584601402 0.0 -0.0 0.0 0.421600312 9.797499657 -19.485097885 0.0066 -0.523700058 -1.438899875 0.0 -0.0 0.0 5.569499493 7.171300888 -33.12140274 -1.60010016 -7.978099823 22.647695541 -0.607000053 -9.482301712 -21.078502655 -0.871099949 -5.950899601 16.641897202 -3.073899508 3.878899574 15.590198517 -2.438999653 4.448999405 1.534299731 -1.822599888 2.22939992 -7.125599861 4.088200092 -12.597200394 -8.750200272 13.865300179 -18.581802368 6.308300495 2.314399958 -8.337301254 4.317399502 0.0 -0.0 0.0 -68.234893799 -2.608905077 37.138004303 15.927800179 -25.422599792 -3.614900827 0.0 0.0 -0.847599924 13.438702583 -2.81180048 -0.671600282 -7.125 0.0 0.0 -10.041701317 27.052001953 4.439799786 0.0 -0.0 0.0 81.177108765 -6.388499737 -4.809798241 -4.398400307 7.566401482 -0.291000068 0.0 0.0 -22.699399948 -33.953308105 27.248905182 -17.133808136 7.125 -0.0 0.0 -2.190099955 1.834799767 -2.260699987 
5.876467705 17.462900162 33.482589722 -3.705199718 31.37339592 1.433994651 0.0 -0.0 0.0 -14.432002068 11.102703094 12.364001274 0.0 -0.0 0.0 0.438899726 9.968600273 -19.845199585 0.0012 -0.223200008 -0.613400042 0.0 -0.0 0.0 9.341600418 11.247498512 -31.614192963 -1.657100201 -8.112099648 23.055101395 -0.610699773 -11.306501389 -22.872001648 -0.829200149 -5.809599876 16.232904434 -0.699200332 4.185900688 16.412403107 -1.994199634 5.2541008 0.589699984 -2.973099947 2.522900343 -8.427601814 5.546099663 -12.374099731 -5.529699802 14.395500183 -18.05380249 6.027801037 2.545300007 -8.182100296 3.600800753 0.0 -0.0 0.0 -66.564300537 -1.33320415 37.495201111 16.152702332 -25.727302551 -3.711999655 0.0 0.0 -0.749000013 13.749799728 -2.605400324 -0.637300074 -7.125 0.0 0.0 -9.822602272 27.259397507 4.291499138 0.0 -0.0 0.0 82.668403625 -9.16479969 -6.697401524 -6.560299873 11.193301201 -0.643500328 0.0 0.0 -21.614702225 -30.701095581 17.753601074 -10.262700081 7.125 -0.0 0.0 -1.75120008 -9.56370163 -1.436600208 
5.895867348 17.446500778 33.558990479 1.572300076 33.021408081 4.376003265 0.0 -0.0 0.0 -19.764493942 9.224900246 13.470401764 0.0 -0.0 0.0 0.114399984 12.039902687 -18.577400208 0.270599961 -3.346200228 -9.24409771 0.0 -0.0 0.0 5.923999786 2.928700209 -34.146102905 -1.756100178 -8.338399887 23.746799469 -0.68659997 -6.101499557 -19.044897079 -0.615799963 -5.022398949 13.972399712 -2.582400084 3.490099669 16.024202347 -3.049700022 3.956899881 1.454400063 -2.676899672 1.96819973 -7.374498844 2.935500622 -12.357998848 -8.612800598 15.144100189 -18.424701691 7.267801285 2.819299936 -8.139101982 4.81799984 0.0 -0.0 0.0 -67.727897644 -3.420500994 34.085601807 15.296898842 -24.558101654 -3.348399639 0.0 -0.0 3.751699924 10.781601906 -8.538298607 -1.619500041 -7.125 0.0 0.0 -11.592601776 21.357501984 6.710501194 0.0 -0.0 0.0 80.94670105 -7.549401283 -8.593101501 -7.179901123 12.215003014 -0.769300401 0.0 0.0 -20.386499405 -28.120101929 11.798900604 -6.236200809 7.125 -0.0 0.0 -0.648700118 -16.655399323 -0.435600013 
5.905266762 17.429300308 33.640590668 -1.996899724 32.241905212 2.765990973 0.0 -0.0 0.0 -16.029705048 9.680603027 13.687303543 0.0 -0.0 0.0 0.519000113 10.10640049 -20.808101654 0.0003 -0.118200012 -0.324600011 0.0 -0.0 0.0 9.023400307 6.035200119 -33.064800262 -1.707600713 -8.228502274 23.410205841 -0.658300042 -7.763399601 -20.067499161 -0.974500239 -6.284300804 17.611700058 -0.443600178 3.553100109 15.174800873 -2.111299753 4.497098923 1.399999857 -2.927000046 2.183800459 -6.862900257 4.288899899 -12.170500755 -8.128100395 14.207300186 -18.01999855 6.453399181 2.466600418 -8.052500725 4.248699665 0.0 -0.0 0.0 -67.380897522 -3.531104326 35.237903595 16.05280304 -25.592302322 -3.668801069 0.0 -0.0 1.778699994 12.757501602 -7.355101109 -1.660300374 -7.125 0.0 0.0 -10.237401009 22.475399017 5.634200573 0.0 -0.0 0.0 82.309616089 -7.908098221 -13.194703102 -8.738600731 14.742899895 -1.132700562 0.0 0.0 -16.001703262 -25.588899612 -18.523097992 8.650298119 7.125 -0.0 0.0 2.55690074 -50.341209412 -0.336800486 
5.935368538 17.3791008 33.68429184 3.088200331 32.01499939 5.649997711 0.0 -0.0 0.0 -20.768396378 9.241396904 13.849995613 0.0 -0.0 0.0 0.602700114 9.745499611 -21.282699585 0.015399999 0.801199853 2.2020998 0.0 -0.0 0.0 4.423901081 4.710800648 -34.122303009 -1.790699959 -8.415700912 23.983999252 -0.675099969 -6.088099957 -18.914600372 -1.399199963 -7.482800007 21.153900146 -4.06099987 3.6577003 15.351301193 -3.931800127 3.867800474 0.846299946 -2.762200356 1.960899711 -7.698901176 7.479502201 -11.893801689 -5.680000305 12.712600708 -17.274902344 5.162899494 2.115600109 -7.910601616 3.272900343 0.0 -0.0 0.0 -66.056610107 -2.7073915 36.611999512 16.913000107 -26.742996216 -4.048099995 0.0 -0.0 0.104599997 14.428999901 -5.134698868 -1.319099903 -7.125 0.0 0.0 -9.135500908 24.678405762 4.542098999 0.0 -0.0 0.0 83.514801025 -8.96049881 -12.391499519 -9.330698967 15.685898781 -1.288100004 0.0 0.0 -16.173002243 -26.851394653 -8.980998993 4.518798351 7.125 -0.0 0.0 0.061400019 -40.025009155 0.007499994 
